<?xml version="1.0" encoding="UTF-8" standalone="no"?>
<svg
   width="16"
   height="16"
   fill="currentColor"
   class="bi bi-gpu-card"
   viewBox="0 0 16 16"
   version="1.1"
   id="svg36"
   sodipodi:docname="gpu-card.svg"
   inkscape:version="1.2.2 (b0a8486541, 2022-12-01)"
   xmlns:inkscape="http://www.inkscape.org/namespaces/inkscape"
   xmlns:sodipodi="http://sodipodi.sourceforge.net/DTD/sodipodi-0.dtd"
   xmlns="http://www.w3.org/2000/svg"
   xmlns:svg="http://www.w3.org/2000/svg">
  <defs
     id="defs40" />
  <sodipodi:namedview
     id="namedview38"
     pagecolor="#505050"
     bordercolor="#eeeeee"
     borderopacity="1"
     inkscape:showpageshadow="0"
     inkscape:pageopacity="0"
     inkscape:pagecheckerboard="0"
     inkscape:deskcolor="#505050"
     showgrid="false"
     inkscape:zoom="54.5"
     inkscape:cx="8.0091743"
     inkscape:cy="8"
     inkscape:window-width="941"
     inkscape:window-height="1018"
     inkscape:window-x="0"
     inkscape:window-y="0"
     inkscape:window-maximized="1"
     inkscape:current-layer="svg36" />
  <path
     d="M4 8a1.5 1.5 0 1 1 3 0 1.5 1.5 0 0 1-3 0Zm7.5-1.5a1.5 1.5 0 1 0 0 3 1.5 1.5 0 0 0 0-3Z"
     id="path30"
     style="fill:#ffffff" />
  <path
     d="M0 1.5A.5.5 0 0 1 .5 1h1a.5.5 0 0 1 .5.5V4h13.5a.5.5 0 0 1 .5.5v7a.5.5 0 0 1-.5.5H2v2.5a.5.5 0 0 1-1 0V2H.5a.5.5 0 0 1-.5-.5Zm5.5 4a2.5 2.5 0 1 0 0 5 2.5 2.5 0 0 0 0-5ZM9 8a2.5 2.5 0 1 0 5 0 2.5 2.5 0 0 0-5 0Z"
     id="path32"
     style="fill:#ffffff" />
  <path
     d="M3 12.5h3.5v1a.5.5 0 0 1-.5.5H3.5a.5.5 0 0 1-.5-.5v-1Zm4 1v-1h4v1a.5.5 0 0 1-.5.5h-3a.5.5 0 0 1-.5-.5Z"
     id="path34"
     style="fill:#ffffff" />
</svg>
