<?xml version="1.0" encoding="UTF-8" standalone="no"?>
<svg
   width="16"
   height="16"
   fill="currentColor"
   class="bi bi-memory"
   viewBox="0 0 16 16"
   version="1.1"
   id="svg330"
   sodipodi:docname="memory.svg"
   inkscape:version="1.2.2 (b0a8486541, 2022-12-01)"
   xmlns:inkscape="http://www.inkscape.org/namespaces/inkscape"
   xmlns:sodipodi="http://sodipodi.sourceforge.net/DTD/sodipodi-0.dtd"
   xmlns="http://www.w3.org/2000/svg"
   xmlns:svg="http://www.w3.org/2000/svg">
  <defs
     id="defs334" />
  <sodipodi:namedview
     id="namedview332"
     pagecolor="#505050"
     bordercolor="#eeeeee"
     borderopacity="1"
     inkscape:showpageshadow="0"
     inkscape:pageopacity="0"
     inkscape:pagecheckerboard="0"
     inkscape:deskcolor="#505050"
     showgrid="false"
     inkscape:zoom="56.125"
     inkscape:cx="8.0089087"
     inkscape:cy="8"
     inkscape:window-width="941"
     inkscape:window-height="1018"
     inkscape:window-x="0"
     inkscape:window-y="0"
     inkscape:window-maximized="1"
     inkscape:current-layer="svg330" />
  <path
     d="M1 3a1 1 0 0 0-1 1v8a1 1 0 0 0 1 1h4.586a1 1 0 0 0 .707-.293l.353-.353a.5.5 0 0 1 .708 0l.353.353a1 1 0 0 0 .707.293H15a1 1 0 0 0 1-1V4a1 1 0 0 0-1-1H1Zm.5 1h3a.5.5 0 0 1 .5.5v4a.5.5 0 0 1-.5.5h-3a.5.5 0 0 1-.5-.5v-4a.5.5 0 0 1 .5-.5Zm5 0h3a.5.5 0 0 1 .5.5v4a.5.5 0 0 1-.5.5h-3a.5.5 0 0 1-.5-.5v-4a.5.5 0 0 1 .5-.5Zm4.5.5a.5.5 0 0 1 .5-.5h3a.5.5 0 0 1 .5.5v4a.5.5 0 0 1-.5.5h-3a.5.5 0 0 1-.5-.5v-4ZM2 10v2H1v-2h1Zm2 0v2H3v-2h1Zm2 0v2H5v-2h1Zm3 0v2H8v-2h1Zm2 0v2h-1v-2h1Zm2 0v2h-1v-2h1Zm2 0v2h-1v-2h1Z"
     id="path328"
     style="fill:#ffffff" />
</svg>
